<svg id="SvgjsSvg1001" width="288" height="288" xmlns="http://www.w3.org/2000/svg" version="1.1" xmlns:xlink="http://www.w3.org/1999/xlink" xmlns:svgjs="http://svgjs.com/svgjs"><defs id="SvgjsDefs1002"></defs><g id="SvgjsG1008"><svg xmlns="http://www.w3.org/2000/svg" viewBox="0 0 24 24" width="288" height="288"><path d="M23.1 17c-.1 0-.1 0 0 0-.3-.2-.5-.2-.7-.3h-.1c-1-.3-1.9-1-2.6-1.9-.4-.5-.7-1.1-.9-1.6-.1-.2 0-.3-.1-.3l.1-.1c.2-.2.5-.4.8-.5.5-.2 1-.4 1.5-.8.1-.1.2-.2.3-.4.1-.3.1-.6 0-.9-.4-.2-.7-.4-.8-.5-.3-.2-.8-.2-1.2-.1-.1 0-.2.1-.3.1-.1 0-.2.1-.3.1h-.4V8.4c0-.8 0-1.6-.1-2.3V6c-.3-1.4-1.2-2.7-2.5-3.7-.9-.6-1.9-1-3-1.1h-1.1c-1.1 0-2.7.2-4.1 1.3-.9.7-1.6 1.6-2 2.6-.2 1.2-.2 2.3-.1 3.2v1.5c-.1 0-.3 0-.4-.1h-.4c-.1 0-.2-.1-.2-.1h-.1c-.4-.1-.8 0-1 .2h-.1c-.4.3-.6.6-.6 1v.2c0 .3.2.5.4.7.1.1.2.1.2.2l.1.1c.4.3.9.4 1.3.6l.3-.1c.3.1.4.3.4.3.1.3-.2.7-.2.8-.5 1-1.2 1.8-2.1 2.4-.5.3-1 .5-1.5.7h-.1c-.2 0-.5.1-.8.5 0 0-.1.1-.1.2-.1.4 0 .7.2.9.1.2.3.3.4.3.5.3 1.1.4 1.6.6H3l.3.1c.1 0 .3.1.4.1 0 .1.1.3.1.4 0 .2.1.3.1.5-.1.4.1.6.4.7.3.1.5 0 .6 0 .8-.1 1.6-.2 2.2-.1.5.1 1 .5 1.6.8.2.1.4.2.6.4.6.4 1.2.7 2.1.7h.5c.4 0 .8 0 1.2-.1.5 0 1-.2 1.4-.5l.9-.6c.5-.3.9-.6 1.4-.8.1 0 .3-.1.6-.1h.2c.6 0 1.3 0 1.9.1h.2c.2 0 .4-.1.5-.3.1-.1.1-.2.2-.3l.1-.3c.1-.2.1-.5.2-.5h.2c.6-.1 1.1-.2 1.5-.4l.2-.1h.1c.2-.1.5-.2.8-.6.1-.2.2-.5.2-.7-.3-.2-.4-.4-.6-.6z" fill="#ffffff" class="svgShape color000000-0 selectable"></path></svg></g></svg>