<svg xmlns="http://www.w3.org/2000/svg" height="30" width="45" viewBox="-144.522 -237.1 1252.524 1422.6"><path d="M962.305 718.4c-4.2-13.9-24.3-23.7-24.3-23.7-1.9-1-3.6-1.9-5-2.6-33.5-16.2-63.2-35.7-88.2-57.8-20.1-17.8-37.3-37.4-51.1-58.2-16.9-25.4-24.8-46.6-28.2-58.1-1.9-7.5-1.6-10.5 0-14.4 1.3-3.3 5.2-6.4 7-7.9 11.3-8 29.5-19.8 40.7-27 9.7-6.3 18-11.7 22.9-15.1 15.7-11 26.5-22.2 32.8-34.3 8.2-15.6 9.2-32.8 2.8-49.7-8.6-22.8-29.9-36.4-57-36.4-6 0-12.2.7-18.4 2-15.5 3.4-30.2 8.9-42.5 13.7-.9.4-1.9-.3-1.8-1.3 1.3-30.5 2.8-71.5-.6-110.4-3-35.2-10.3-64.9-22.1-90.8-11.9-26-27.4-45.2-39.5-59.1-11.5-13.2-31.8-32.7-62.4-50.2-43-24.6-92-37.1-145.6-37.1-53.5 0-102.4 12.5-145.5 37.1-32.4 18.5-53.1 39.4-62.5 50.2-12.1 13.9-27.6 33.1-39.5 59.1-11.9 25.9-19.1 55.5-22.1 90.8-3.4 39.1-2 76.8-.6 110.4 0 1-.9 1.7-1.9 1.3-12.3-4.8-27-10.3-42.5-13.7-6.1-1.3-12.3-2-18.4-2-27 0-48.3 13.6-57 36.4-6.4 16.9-5.4 34.1 2.8 49.7 6.4 12.1 17.1 23.3 32.8 34.3 4.8 3.4 13.2 8.8 22.9 15.1 10.9 7.1 28.6 18.6 40 26.5 1.4 1 6.2 4.6 7.7 8.4 1.6 4 1.9 7-.2 15-3.5 11.6-11.4 32.6-28 57.5-13.8 20.9-31 40.4-51.1 58.2-25 22.1-54.7 41.6-88.2 57.8-1.6.8-3.5 1.7-5.5 2.9 0 0-20 10.2-23.8 23.4-5.6 19.5 9.3 37.8 24.4 47.6 24.8 16 55 24.6 72.5 29.3 4.9 1.3 9.3 2.5 13.3 3.7 2.5.8 8.8 3.2 11.5 6.7 3.4 4.4 3.8 9.8 5 15.9 1.9 10.3 6.2 23 18.9 31.8 14 9.6 31.7 10.3 54.2 11.2 23.5.9 52.7 2 86.2 13.1 15.5 5.1 29.6 13.8 45.8 23.8 34 20.9 76.3 46.9 148.5 46.9 72.3 0 114.9-26.1 149.1-47.1 16.2-9.9 30.1-18.5 45.3-23.5 33.5-11.1 62.7-12.2 86.2-13.1 22.5-.9 40.2-1.5 54.2-11.2 13.6-9.4 17.5-23.4 19.3-33.9 1-5.2 1.6-9.9 4.6-13.7 2.6-3.3 8.4-5.6 11.1-6.5 4.1-1.3 8.7-2.5 13.8-3.9 17.5-4.7 39.5-10.2 66.2-25.3 32.2-18.3 34.4-40.7 31-51.8z" fill="#fff"></path></svg>